HIERARCHY
ROOT MidHip
{
    OFFSET 0.0 0.0 0.0
    CHANNELS 6 Xposition Yposition Zposition Zrotation Xrotation Yrotation
    JOINT Spine
    {
        OFFSET 0.0 0.0 13.793179754071971
        CHANNELS 3 Zrotation Xrotation Yrotation
        JOINT MidShoulder
        {
            OFFSET 0.0 0.0 13.793179754071971
            CHANNELS 3 Zrotation Xrotation Yrotation
            JOINT Nose
            {
                OFFSET 0.0 0.0 11.76661174609451
                CHANNELS 3 Zrotation Xrotation Yrotation
                End Site
                {
                    OFFSET 0.0 0.0 4.706644698437805
                }
            }
            JOINT RightShoulder
            {
                OFFSET -9.18710738646973 0.0 0.0
                CHANNELS 3 Zrotation Xrotation Yrotation
                JOINT RightElbow
                {
                    OFFSET -14.214874277997698 0.0 0.0
                    CHANNELS 3 Zrotation Xrotation Yrotation
                    JOINT RightWrist
                    {
                        OFFSET -12.455885454398853 0.0 0.0
                        CHANNELS 3 Zrotation Xrotation Yrotation
                        End Site
                        {
                            OFFSET -3.5230564281953227 3.5230564281953227 0.0
                        }
                        End Site
                        {
                            OFFSET -4.98235418175954 0.0 0.0
                        }
                        End Site
                        {
                            OFFSET -3.5230564281953227 -3.5230564281953227 0.0
                        }
                    }
                }
            }
            JOINT LeftShoulder
            {
                OFFSET 9.18710738646973 0.0 0.0
                CHANNELS 3 Zrotation Xrotation Yrotation
                JOINT LeftElbow
                {
                    OFFSET 14.214874277997698 0.0 0.0
                    CHANNELS 3 Zrotation Xrotation Yrotation
                    JOINT LeftWrist
                    {
                        OFFSET 12.455885454398853 0.0 0.0
                        CHANNELS 3 Zrotation Xrotation Yrotation
                        End Site
                        {
                            OFFSET 3.5230564281953227 3.5230564281953227 0.0
                        }
                        End Site
                        {
                            OFFSET 4.98235418175954 0.0 0.0
                        }
                        End Site
                        {
                            OFFSET 3.5230564281953227 -3.5230564281953227 0.0
                        }
                    }
                }
            }
        }
    }
    JOINT RightHip
    {
        OFFSET -5.228159949566038 0.0 0.0
        CHANNELS 3 Zrotation Xrotation Yrotation
        JOINT RightKnee
        {
            OFFSET 0.0 0.0 -19.220720234385468
            CHANNELS 3 Zrotation Xrotation Yrotation
            JOINT RightAnkle
            {
                OFFSET 0.0 0.0 -20.30758457654049
                CHANNELS 3 Zrotation Xrotation Yrotation
                End Site
                {
                    OFFSET 0.0 5.743852305436449 -5.743852305436449
                }
                End Site
                {
                    OFFSET 0.0 -5.743852305436449 -5.743852305436449
                }
            }
        }
    }
    JOINT LeftHip
    {
        OFFSET 5.228159949566038 0.0 0.0
        CHANNELS 3 Zrotation Xrotation Yrotation
        JOINT LeftKnee
        {
            OFFSET 0.0 0.0 -19.220720234385468
            CHANNELS 3 Zrotation Xrotation Yrotation
            JOINT LeftAnkle
            {
                OFFSET 0.0 0.0 -20.30758457654049
                CHANNELS 3 Zrotation Xrotation Yrotation
                End Site
                {
                    OFFSET 0.0 5.743852305436449 -5.743852305436449
                }
                End Site
                {
                    OFFSET 0.0 -5.743852305436449 -5.743852305436449
                }
            }
        }
    }
}
MOTION
Frames: 5
Frame Time: 0.03333333333333333
15.900745159811363 43.910560349738944 18.64608524750637 -59.765170226140526 72.79173897957497 -112.5927261243844 -1.4535114981668797 -10.281597212852732 -8.582234979696056 8.464674400297632 6.578490820356494e-15 2.7024246400931887e-15 0.0 0.0 0.0 33.38998961355593 -1.4744491697705437 -67.55137455133112 121.23073283576335 -3.498442367574138e-16 7.103326644531075e-15 27.723591089427423 1.3422093163270803 -0.7052806326258612 -50.729486508468554 -4.376068851974056 76.1496991369896 -115.70445426748145 5.385814852576184e-15 -3.3847763147492866e-15 -26.37781970413239 -24.79110215221791 168.25300655793896 -2.6478975252992103 -18.282359867130847 -4.812699614382535 1.3165744737888154 20.198066694568205 -5.232718014859858 7.951386703658792e-16 6.361109362927033e-15 -3.1805546814635164e-15 -1.4439725766401015 -10.215561924811906 -6.843891266168615 0.14984112869004465 6.85901176384391 5.3624756280725325 1.5902773407317584e-15 0.0 0.0
15.864751087080247 43.78565145458585 18.623897430804085 -60.77602742531227 72.80607266915578 -111.58450178718985 -1.2163229971000455 -9.686297132730454 -8.59823138335532 9.100229383212199 1.2615834844607523e-16 1.585265306364279e-15 0.0 0.0 0.0 33.26835566159301 -1.1706542148492662 -68.54820518014417 121.15398119974068 3.1249177765267392e-15 -5.540631842765331e-15 30.5593520673613 3.932415621270786 -2.318770933006499 -49.58329407502783 -5.8457376690046825 75.54743275723693 -118.83371268399631 -9.955765381457012e-15 2.0661824602922067e-14 -24.050563915216514 -26.393953223995158 168.77865484244288 -2.1975999063866207 -17.136489549776268 -4.66943936831505 0.9394535253988041 18.84168188173349 -5.671479224335206 -7.951386703658791e-16 -6.3611093629270335e-15 1.5902773407317584e-15 -1.3464270432758791 -10.69941218766984 -6.380774358377824 0.11720898598519769 7.995278916244862 4.219781095007332 -1.5902773407317588e-15 6.361109362927035e-15 -1.5902773407317588e-15
15.994684551853606 43.77331013181851 18.480127896249822 -62.07530965294819 72.3755745009246 -109.991779409708 -1.196267246404363 -9.575372761906545 -8.496108345552592 8.593517007160502 -6.224083408739344e-15 2.0623966807135996e-15 0.0 0.0 0.0 34.11406756759064 -2.6831530157706864 -68.97197656642828 120.89686159497471 -1.1981321559878436e-15 -4.335474080230085e-15 32.46359703110023 1.745816196874966 -1.110337953317608 -51.172949945771435 -5.90847022497075 74.07456241902231 -120.63045967851146 3.1501979362075395e-15 5.526297611406005e-15 -23.902603818094686 -26.0956022525008 168.9686846706959 -2.0981180940511077 -16.479684389588115 -4.988734309438559 0.7801118754884608 18.209037768462057 -6.244992397608461 -7.951386703658792e-16 0.0 0.0 -1.3152399128637384 -10.507238673661496 -6.992175061520968 0.025549979913280577 7.9193387655843335 4.421935436393839 -1.5902773407317584e-15 0.0 0.0
15.967992417861426 43.77216978152452 18.445615500501628 -62.74288142979695 71.98936828650038 -109.41469160175845 -1.1838492422869835 -9.623486428693937 -8.468176821398048 7.781259135531913 6.13064209129509e-15 -3.604839518943726e-15 0.0 0.0 0.0 35.26634305202897 -3.837335228527212 -68.8973413317469 120.35037690250627 -9.455315002717166e-15 -9.086682320277463e-15 34.582482614574495 -0.13553355959242255 0.09343702540606058 -52.81050056253053 -6.268010920814366 71.52792336484704 -123.59716711925171 0.0 -0.0 -22.36951110776128 -32.82124588083548 167.42506978282213 -2.0317904746721074 -16.22323624261174 -4.600369622683891 0.841104686177814 17.681998582366845 -6.876878261274654 7.951386703658792e-16 6.3611093629270335e-15 -1.5902773407317584e-15 -1.3200663042117877 -10.706290811968893 -6.726904473141393 0.04809108781351796 7.958675404034638 3.722799870159587 -1.5902773407317584e-15 0.0 0.0
15.959163567726497 43.71673788649992 18.366877549048425 -62.63746194126896 72.642476056422 -109.73168341873571 -1.143847865204394 -9.482168767679044 -8.496486607846506 7.474828754791025 1.2280519791731395e-14 -7.176865282313956e-15 1.5902773407317584e-15 0.0 0.0 36.47545431924916 -3.872469693780775 -69.03428451910469 121.2499827317091 0.0 0.0 33.63032254694863 -1.1201736436686562 0.7450069514193455 -54.16021094904036 -6.059428529512576 70.04208304766016 -126.09245676572142 -5.766618587355126e-15 -1.1340236301613922e-14 -24.086272485891435 -38.985523627068375 164.29189848944523 -1.9746374659084842 -16.082019678233266 -3.988012816335532 1.00303272168494 17.87627624824417 -7.9430590917950115 0.0 0.0 0.0 -1.25610131523024 -10.39317654020024 -6.659921760562054 0.039224942919366346 8.266117300828546 3.8194134855608826 -3.1805546814635168e-15 0.0 0.0
